<?xml version="1.0" encoding="UTF-8"?>
<svg viewBox="0 0 213 59" version="1.1" xmlns="http://www.w3.org/2000/svg" xmlns:xlink="http://www.w3.org/1999/xlink">
<!-- <svg width="213px" height="59px" viewBox="0 0 213 59" version="1.1" xmlns="http://www.w3.org/2000/svg" xmlns:xlink="http://www.w3.org/1999/xlink"> -->
    <!-- Generator: Sketch 52.4 (67378) - http://www.bohemiancoding.com/sketch -->
    <title>Group 2</title>
    <desc>Created with Sketch.</desc>
    <defs>
        <path d="M29,6 L27,6 L32,0 L37,6 L35,6 L35,37 L29,37 L29,6 Z" id="path-1"></path>
        <filter x="-140.0%" y="-27.0%" width="380.0%" height="175.7%" filterUnits="objectBoundingBox" id="filter-2">
            <feOffset dx="0" dy="4" in="SourceAlpha" result="shadowOffsetOuter1"></feOffset>
            <feGaussianBlur stdDeviation="4" in="shadowOffsetOuter1" result="shadowBlurOuter1"></feGaussianBlur>
            <feColorMatrix values="0 0 0 0 0   0 0 0 0 0   0 0 0 0 0  0 0 0 0.06 0" type="matrix" in="shadowBlurOuter1"></feColorMatrix>
        </filter>
    </defs>
    <g id="Page-1" stroke="none" stroke-width="1" fill="none" fill-rule="evenodd">
        <g id="CollabtoGrow-Login-Page" transform="translate(-984.000000, -203.000000)">
            <g id="Group-2-Copy" transform="translate(940.000000, 176.000000)">
                <g id="Top-Section">
                    <g id="Group-2">
                        <g transform="translate(44.000000, 30.000000)">
                            <g id="Group" transform="translate(40.000000, 16.000000)" fill="#008AAB">
                                <path d="M4.858,39 L4.858,31.663 L5.771,31.663 L5.771,39 L4.858,39 Z M13.757,39 L13.757,32.895 L11.26,39 L10.886,39 L8.4,32.895 L8.4,39 L7.487,39 L7.487,31.663 L8.796,31.663 L11.073,37.251 L13.361,31.663 L14.67,31.663 L14.67,39 L13.757,39 Z M21.655,39 L21.006,37.372 L17.288,37.372 L16.639,39 L15.627,39 L18.575,31.663 L19.708,31.663 L22.667,39 L21.655,39 Z M19.147,32.477 L17.552,36.558 L20.731,36.558 L19.147,32.477 Z M22.92,35.337 C22.92,33.06 24.603,31.542 26.693,31.542 C27.991,31.542 28.893,32.114 29.542,32.917 L28.816,33.368 C28.354,32.774 27.573,32.356 26.693,32.356 C25.087,32.356 23.866,33.588 23.866,35.337 C23.866,37.075 25.087,38.329 26.693,38.329 C27.573,38.329 28.299,37.9 28.662,37.537 L28.662,36.041 L26.143,36.041 L26.143,35.227 L29.575,35.227 L29.575,37.878 C28.893,38.637 27.892,39.143 26.693,39.143 C24.603,39.143 22.92,37.614 22.92,35.337 Z M31.06,39 L31.06,31.663 L31.973,31.663 L31.973,39 L31.06,39 Z M38.881,39 L34.602,33.082 L34.602,39 L33.689,39 L33.689,31.663 L34.624,31.663 L38.848,37.46 L38.848,31.663 L39.761,31.663 L39.761,39 L38.881,39 Z M41.477,39 L41.477,31.663 L46.284,31.663 L46.284,32.477 L42.39,32.477 L42.39,34.842 L46.207,34.842 L46.207,35.656 L42.39,35.656 L42.39,38.186 L46.284,38.186 L46.284,39 L41.477,39 Z M47.538,38.505 C47.538,38.175 47.813,37.9 48.143,37.9 C48.473,37.9 48.748,38.175 48.748,38.505 C48.748,38.835 48.473,39.11 48.143,39.11 C47.813,39.11 47.538,38.835 47.538,38.505 Z M58.373,39 L57.724,37.372 L54.006,37.372 L53.357,39 L52.345,39 L55.293,31.663 L56.426,31.663 L59.385,39 L58.373,39 Z M55.865,32.477 L54.27,36.558 L57.449,36.558 L55.865,32.477 Z M60.342,39 L60.342,31.663 L61.255,31.663 L61.255,38.186 L64.665,38.186 L64.665,39 L60.342,39 Z M65.952,39 L65.952,31.663 L66.865,31.663 L66.865,39 L65.952,39 Z M68.284,35.337 C68.284,33.06 69.967,31.542 72.057,31.542 C73.355,31.542 74.257,32.114 74.906,32.917 L74.18,33.368 C73.718,32.774 72.937,32.356 72.057,32.356 C70.451,32.356 69.23,33.588 69.23,35.337 C69.23,37.075 70.451,38.329 72.057,38.329 C72.937,38.329 73.663,37.9 74.026,37.537 L74.026,36.041 L71.507,36.041 L71.507,35.227 L74.939,35.227 L74.939,37.878 C74.257,38.637 73.256,39.143 72.057,39.143 C69.967,39.143 68.284,37.614 68.284,35.337 Z M81.616,39 L77.337,33.082 L77.337,39 L76.424,39 L76.424,31.663 L77.359,31.663 L81.583,37.46 L81.583,31.663 L82.496,31.663 L82.496,39 L81.616,39 Z M84.014,38.505 C84.014,38.175 84.289,37.9 84.619,37.9 C84.949,37.9 85.224,38.175 85.224,38.505 C85.224,38.835 84.949,39.11 84.619,39.11 C84.289,39.11 84.014,38.835 84.014,38.505 Z M89.14,37.966 L89.679,37.273 C90.163,37.812 90.955,38.318 91.989,38.318 C93.298,38.318 93.716,37.614 93.716,37.053 C93.716,36.173 92.825,35.931 91.857,35.667 C90.68,35.359 89.371,35.029 89.371,33.588 C89.371,32.378 90.449,31.553 91.89,31.553 C93.012,31.553 93.881,31.927 94.497,32.576 L93.947,33.247 C93.397,32.642 92.627,32.367 91.824,32.367 C90.944,32.367 90.317,32.84 90.317,33.533 C90.317,34.27 91.164,34.49 92.099,34.743 C93.298,35.062 94.662,35.436 94.662,36.976 C94.662,38.043 93.936,39.132 91.956,39.132 C90.68,39.132 89.745,38.648 89.14,37.966 Z M96.026,36.151 L96.026,31.663 L96.939,31.663 L96.939,36.129 C96.939,37.471 97.665,38.318 99.018,38.318 C100.371,38.318 101.097,37.471 101.097,36.129 L101.097,31.663 L102.01,31.663 L102.01,36.14 C102.01,37.966 101.009,39.132 99.018,39.132 C97.027,39.132 96.026,37.955 96.026,36.151 Z M107.169,39.132 C105.09,39.132 103.429,37.592 103.429,35.337 C103.429,33.082 105.09,31.542 107.169,31.542 C108.5,31.542 109.402,32.169 109.985,32.994 L109.215,33.423 C108.797,32.807 108.038,32.356 107.169,32.356 C105.596,32.356 104.375,33.588 104.375,35.337 C104.375,37.075 105.596,38.318 107.169,38.318 C108.038,38.318 108.797,37.878 109.215,37.251 L109.996,37.68 C109.38,38.516 108.5,39.132 107.169,39.132 Z M114.605,39.132 C112.526,39.132 110.865,37.592 110.865,35.337 C110.865,33.082 112.526,31.542 114.605,31.542 C115.936,31.542 116.838,32.169 117.421,32.994 L116.651,33.423 C116.233,32.807 115.474,32.356 114.605,32.356 C113.032,32.356 111.811,33.588 111.811,35.337 C111.811,37.075 113.032,38.318 114.605,38.318 C115.474,38.318 116.233,37.878 116.651,37.251 L117.432,37.68 C116.816,38.516 115.936,39.132 114.605,39.132 Z M118.598,39 L118.598,31.663 L123.405,31.663 L123.405,32.477 L119.511,32.477 L119.511,34.842 L123.328,34.842 L123.328,35.656 L119.511,35.656 L119.511,38.186 L123.405,38.186 L123.405,39 L118.598,39 Z M124.857,39 L124.857,31.663 L129.664,31.663 L129.664,32.477 L125.77,32.477 L125.77,34.842 L129.587,34.842 L129.587,35.656 L125.77,35.656 L125.77,38.186 L129.664,38.186 L129.664,39 L124.857,39 Z M131.116,39 L131.116,31.663 L133.624,31.663 C135.901,31.663 137.386,33.258 137.386,35.337 C137.386,37.427 135.901,39 133.624,39 L131.116,39 Z M132.029,38.186 L133.624,38.186 C135.406,38.186 136.44,36.91 136.44,35.337 C136.44,33.753 135.439,32.477 133.624,32.477 L132.029,32.477 L132.029,38.186 Z M138.321,38.505 C138.321,38.175 138.596,37.9 138.926,37.9 C139.256,37.9 139.531,38.175 139.531,38.505 C139.531,38.835 139.256,39.11 138.926,39.11 C138.596,39.11 138.321,38.835 138.321,38.505 Z" id="IMAGINE.-ALIGN.-SUCC"></path>
                                <path d="M0.96,13.74 C0.96,9.3 4.17,6.15 8.64,6.15 C11.61,6.15 13.41,7.44 14.37,8.79 L11.88,11.1 C11.19,10.11 10.14,9.54 8.82,9.54 C6.51,9.54 4.89,11.22 4.89,13.74 C4.89,16.26 6.51,17.97 8.82,17.97 C10.14,17.97 11.19,17.37 11.88,16.41 L14.37,18.72 C13.41,20.07 11.61,21.36 8.64,21.36 C4.17,21.36 0.96,18.21 0.96,13.74 Z M23.58,21.36 C18.81,21.36 15.93,17.88 15.93,13.74 C15.93,9.63 18.81,6.15 23.58,6.15 C28.38,6.15 31.26,9.63 31.26,13.74 C31.26,17.88 28.38,21.36 23.58,21.36 Z M23.58,17.97 C25.95,17.97 27.3,16.02 27.3,13.74 C27.3,11.49 25.95,9.54 23.58,9.54 C21.21,9.54 19.89,11.49 19.89,13.74 C19.89,16.02 21.21,17.97 23.58,17.97 Z M34.08,21 L34.08,0.99 L37.89,0.99 L37.89,21 L34.08,21 Z M41.67,21 L41.67,0.99 L45.48,0.99 L45.48,21 L41.67,21 Z M57.96,21 L57.96,19.5 C56.97,20.67 55.26,21.36 53.37,21.36 C51.06,21.36 48.33,19.8 48.33,16.56 C48.33,13.17 51.06,11.94 53.37,11.94 C55.29,11.94 57,12.54 57.96,13.71 L57.96,11.7 C57.96,10.23 56.7,9.27 54.78,9.27 C53.22,9.27 51.78,9.84 50.55,10.98 L49.11,8.43 C50.88,6.87 53.16,6.15 55.44,6.15 C58.74,6.15 61.77,7.47 61.77,11.64 L61.77,21 L57.96,21 Z M57.96,17.52 L57.96,15.72 C57.33,14.88 56.13,14.46 54.9,14.46 C53.4,14.46 52.17,15.27 52.17,16.65 C52.17,18 53.4,18.78 54.9,18.78 C56.13,18.78 57.33,18.36 57.96,17.52 Z M65.55,21 L65.55,0.99 L69.36,0.99 L69.36,8.37 C70.5,6.9 72.12,6.15 73.83,6.15 C77.52,6.15 80.25,9.03 80.25,13.77 C80.25,18.6 77.49,21.36 73.83,21.36 C72.09,21.36 70.5,20.58 69.36,19.17 L69.36,21 L65.55,21 Z M69.36,16.35 C69.99,17.28 71.4,17.97 72.63,17.97 C74.85,17.97 76.32,16.29 76.32,13.77 C76.32,11.25 74.85,9.54 72.63,9.54 C71.4,9.54 69.99,10.26 69.36,11.22 L69.36,16.35 Z" id="collab"></path>
                                <path d="M88.275,18.228 C86.584,18.228 85.672,17.354 85.672,15.72 L85.672,10.932 L84.152,10.932 L84.152,8.823 L85.672,8.823 L85.672,6.315 L88.104,6.315 L88.104,8.823 L89.966,8.823 L89.966,10.932 L88.104,10.932 L88.104,15.074 C88.104,15.644 88.408,16.081 88.94,16.081 C89.301,16.081 89.643,15.948 89.776,15.815 L90.289,17.639 C89.928,17.962 89.282,18.228 88.275,18.228 Z M95.875,18.228 C92.854,18.228 91.03,16.024 91.03,13.402 C91.03,10.799 92.854,8.595 95.875,8.595 C98.915,8.595 100.739,10.799 100.739,13.402 C100.739,16.024 98.915,18.228 95.875,18.228 Z M95.875,16.081 C97.376,16.081 98.231,14.846 98.231,13.402 C98.231,11.977 97.376,10.742 95.875,10.742 C94.374,10.742 93.538,11.977 93.538,13.402 C93.538,14.846 94.374,16.081 95.875,16.081 Z" id="to"></path>
                                <path d="M105.59,24.72 L107.3,21.96 C108.47,23.25 110,23.76 111.83,23.76 C113.66,23.76 115.82,22.95 115.82,20.1 L115.82,18.63 C114.68,20.07 113.12,20.91 111.35,20.91 C107.72,20.91 104.96,18.36 104.96,13.53 C104.96,8.79 107.69,6.15 111.35,6.15 C113.09,6.15 114.65,6.9 115.82,8.37 L115.82,6.51 L119.66,6.51 L119.66,20.01 C119.66,25.53 115.4,26.88 111.83,26.88 C109.34,26.88 107.39,26.31 105.59,24.72 Z M115.82,15.87 L115.82,11.19 C115.19,10.23 113.81,9.54 112.55,9.54 C110.39,9.54 108.89,11.04 108.89,13.53 C108.89,16.02 110.39,17.52 112.55,17.52 C113.81,17.52 115.19,16.8 115.82,15.87 Z M123.44,21 L123.44,6.51 L127.25,6.51 L127.25,8.49 C128.27,7.2 130.07,6.18 131.87,6.18 L131.87,9.9 C131.6,9.84 131.24,9.81 130.82,9.81 C129.56,9.81 127.88,10.5 127.25,11.43 L127.25,21 L123.44,21 Z M140.96,21.36 C136.19,21.36 133.31,17.88 133.31,13.74 C133.31,9.63 136.19,6.15 140.96,6.15 C145.76,6.15 148.64,9.63 148.64,13.74 C148.64,17.88 145.76,21.36 140.96,21.36 Z M140.96,17.97 C143.33,17.97 144.68,16.02 144.68,13.74 C144.68,11.49 143.33,9.54 140.96,9.54 C138.59,9.54 137.27,11.49 137.27,13.74 C137.27,16.02 138.59,17.97 140.96,17.97 Z M164.18,21 L161.12,11.13 L158.06,21 L153.98,21 L149.57,6.51 L153.53,6.51 L156.23,16.26 L159.41,6.51 L162.8,6.51 L165.98,16.26 L168.68,6.51 L172.64,6.51 L168.23,21 L164.18,21 Z" id="grow"></path>
                            </g>
                            <rect id="Rectangle" fill="#3EB7F9" x="0" y="24" width="6" height="13"></rect>
                            <rect id="Rectangle-Copy" fill="#3EB7F9" x="9" y="19" width="6" height="18"></rect>
                            <rect id="Rectangle-Copy-2" fill="#3EB7F9" x="19" y="14" width="6" height="23"></rect>
                            <g id="Combined-Shape">
                                <use fill="black" fill-opacity="1" filter="url(#filter-2)" xlink:href="#path-1"></use>
                                <use fill="#70D44B" fill-rule="evenodd" xlink:href="#path-1"></use>
                            </g>
                            <circle id="Oval" fill="#3EB7F9" cx="22" cy="9" r="3"></circle>
                            <circle id="Oval-Copy" fill="#3EB7F9" cx="12" cy="14" r="3"></circle>
                            <circle id="Oval-Copy-2" fill="#3EB7F9" cx="3" cy="19" r="3"></circle>
                        </g>
                    </g>
                </g>
            </g>
        </g>
    </g>
</svg>