<?xml version="1.0" encoding="UTF-8"?>
<svg width="213px" height="52px" viewBox="0 0 213 52" version="1.1" xmlns="http://www.w3.org/2000/svg" xmlns:xlink="http://www.w3.org/1999/xlink">
    <!-- Generator: Sketch 52.4 (67378) - http://www.bohemiancoding.com/sketch -->
    <title>Group 2</title>
    <desc>Created with Sketch.</desc>
    <defs>
        <path d="M29,6 L27,6 L32,0 L37,6 L35,6 L35,37 L29,37 L29,6 Z" id="path-1"></path>
        <filter x="-140.0%" y="-27.0%" width="380.0%" height="175.7%" filterUnits="objectBoundingBox" id="filter-2">
            <feOffset dx="0" dy="4" in="SourceAlpha" result="shadowOffsetOuter1"></feOffset>
            <feGaussianBlur stdDeviation="4" in="shadowOffsetOuter1" result="shadowBlurOuter1"></feGaussianBlur>
            <feColorMatrix values="0 0 0 0 0   0 0 0 0 0   0 0 0 0 0  0 0 0 0.06 0" type="matrix" in="shadowBlurOuter1"></feColorMatrix>
        </filter>
    </defs>
    <g id="Page-1" stroke="none" stroke-width="1" fill="none" fill-rule="evenodd">
        <g id="CollabtoGrow-Login-Page" transform="translate(-984.000000, -203.000000)">
            <g id="Group-2-Copy" transform="translate(940.000000, 176.000000)">
                <g id="Top-Section">
                    <g id="Group-2">
                        <g transform="translate(44.000000, 30.000000)">
                            <g id="Group" transform="translate(40.000000, 16.000000)" fill="#008AAB">
                                <path d="M0.96,13.74 C0.96,9.3 4.17,6.15 8.64,6.15 C11.61,6.15 13.41,7.44 14.37,8.79 L11.88,11.1 C11.19,10.11 10.14,9.54 8.82,9.54 C6.51,9.54 4.89,11.22 4.89,13.74 C4.89,16.26 6.51,17.97 8.82,17.97 C10.14,17.97 11.19,17.37 11.88,16.41 L14.37,18.72 C13.41,20.07 11.61,21.36 8.64,21.36 C4.17,21.36 0.96,18.21 0.96,13.74 Z M23.58,21.36 C18.81,21.36 15.93,17.88 15.93,13.74 C15.93,9.63 18.81,6.15 23.58,6.15 C28.38,6.15 31.26,9.63 31.26,13.74 C31.26,17.88 28.38,21.36 23.58,21.36 Z M23.58,17.97 C25.95,17.97 27.3,16.02 27.3,13.74 C27.3,11.49 25.95,9.54 23.58,9.54 C21.21,9.54 19.89,11.49 19.89,13.74 C19.89,16.02 21.21,17.97 23.58,17.97 Z M34.08,21 L34.08,0.99 L37.89,0.99 L37.89,21 L34.08,21 Z M41.67,21 L41.67,0.99 L45.48,0.99 L45.48,21 L41.67,21 Z M57.96,21 L57.96,19.5 C56.97,20.67 55.26,21.36 53.37,21.36 C51.06,21.36 48.33,19.8 48.33,16.56 C48.33,13.17 51.06,11.94 53.37,11.94 C55.29,11.94 57,12.54 57.96,13.71 L57.96,11.7 C57.96,10.23 56.7,9.27 54.78,9.27 C53.22,9.27 51.78,9.84 50.55,10.98 L49.11,8.43 C50.88,6.87 53.16,6.15 55.44,6.15 C58.74,6.15 61.77,7.47 61.77,11.64 L61.77,21 L57.96,21 Z M57.96,17.52 L57.96,15.72 C57.33,14.88 56.13,14.46 54.9,14.46 C53.4,14.46 52.17,15.27 52.17,16.65 C52.17,18 53.4,18.78 54.9,18.78 C56.13,18.78 57.33,18.36 57.96,17.52 Z M65.55,21 L65.55,0.99 L69.36,0.99 L69.36,8.37 C70.5,6.9 72.12,6.15 73.83,6.15 C77.52,6.15 80.25,9.03 80.25,13.77 C80.25,18.6 77.49,21.36 73.83,21.36 C72.09,21.36 70.5,20.58 69.36,19.17 L69.36,21 L65.55,21 Z M69.36,16.35 C69.99,17.28 71.4,17.97 72.63,17.97 C74.85,17.97 76.32,16.29 76.32,13.77 C76.32,11.25 74.85,9.54 72.63,9.54 C71.4,9.54 69.99,10.26 69.36,11.22 L69.36,16.35 Z" id="collab"></path>
                                <path d="M88.275,18.228 C86.584,18.228 85.672,17.354 85.672,15.72 L85.672,10.932 L84.152,10.932 L84.152,8.823 L85.672,8.823 L85.672,6.315 L88.104,6.315 L88.104,8.823 L89.966,8.823 L89.966,10.932 L88.104,10.932 L88.104,15.074 C88.104,15.644 88.408,16.081 88.94,16.081 C89.301,16.081 89.643,15.948 89.776,15.815 L90.289,17.639 C89.928,17.962 89.282,18.228 88.275,18.228 Z M95.875,18.228 C92.854,18.228 91.03,16.024 91.03,13.402 C91.03,10.799 92.854,8.595 95.875,8.595 C98.915,8.595 100.739,10.799 100.739,13.402 C100.739,16.024 98.915,18.228 95.875,18.228 Z M95.875,16.081 C97.376,16.081 98.231,14.846 98.231,13.402 C98.231,11.977 97.376,10.742 95.875,10.742 C94.374,10.742 93.538,11.977 93.538,13.402 C93.538,14.846 94.374,16.081 95.875,16.081 Z" id="to"></path>
                                <path d="M105.59,24.72 L107.3,21.96 C108.47,23.25 110,23.76 111.83,23.76 C113.66,23.76 115.82,22.95 115.82,20.1 L115.82,18.63 C114.68,20.07 113.12,20.91 111.35,20.91 C107.72,20.91 104.96,18.36 104.96,13.53 C104.96,8.79 107.69,6.15 111.35,6.15 C113.09,6.15 114.65,6.9 115.82,8.37 L115.82,6.51 L119.66,6.51 L119.66,20.01 C119.66,25.53 115.4,26.88 111.83,26.88 C109.34,26.88 107.39,26.31 105.59,24.72 Z M115.82,15.87 L115.82,11.19 C115.19,10.23 113.81,9.54 112.55,9.54 C110.39,9.54 108.89,11.04 108.89,13.53 C108.89,16.02 110.39,17.52 112.55,17.52 C113.81,17.52 115.19,16.8 115.82,15.87 Z M123.44,21 L123.44,6.51 L127.25,6.51 L127.25,8.49 C128.27,7.2 130.07,6.18 131.87,6.18 L131.87,9.9 C131.6,9.84 131.24,9.81 130.82,9.81 C129.56,9.81 127.88,10.5 127.25,11.43 L127.25,21 L123.44,21 Z M140.96,21.36 C136.19,21.36 133.31,17.88 133.31,13.74 C133.31,9.63 136.19,6.15 140.96,6.15 C145.76,6.15 148.64,9.63 148.64,13.74 C148.64,17.88 145.76,21.36 140.96,21.36 Z M140.96,17.97 C143.33,17.97 144.68,16.02 144.68,13.74 C144.68,11.49 143.33,9.54 140.96,9.54 C138.59,9.54 137.27,11.49 137.27,13.74 C137.27,16.02 138.59,17.97 140.96,17.97 Z M164.18,21 L161.12,11.13 L158.06,21 L153.98,21 L149.57,6.51 L153.53,6.51 L156.23,16.26 L159.41,6.51 L162.8,6.51 L165.98,16.26 L168.68,6.51 L172.64,6.51 L168.23,21 L164.18,21 Z" id="grow"></path>
                            </g>
                            <rect id="Rectangle" fill="#3EB7F9" x="0" y="24" width="6" height="13"></rect>
                            <rect id="Rectangle-Copy" fill="#3EB7F9" x="9" y="19" width="6" height="18"></rect>
                            <rect id="Rectangle-Copy-2" fill="#3EB7F9" x="19" y="14" width="6" height="23"></rect>
                            <g id="Combined-Shape">
                                <use fill="black" fill-opacity="1" filter="url(#filter-2)" xlink:href="#path-1"></use>
                                <use fill="#70D44B" fill-rule="evenodd" xlink:href="#path-1"></use>
                            </g>
                            <circle id="Oval" fill="#3EB7F9" cx="22" cy="9" r="3"></circle>
                            <circle id="Oval-Copy" fill="#3EB7F9" cx="12" cy="14" r="3"></circle>
                            <circle id="Oval-Copy-2" fill="#3EB7F9" cx="3" cy="19" r="3"></circle>
                        </g>
                    </g>
                </g>
            </g>
        </g>
    </g>
</svg>