<?xml version="1.0" encoding="UTF-8"?>
<svg width="220px" height="63px" viewBox="0 0 220 63" version="1.1" xmlns="http://www.w3.org/2000/svg" xmlns:xlink="http://www.w3.org/1999/xlink">
    <!-- Generator: Sketch 52.4 (67378) - http://www.bohemiancoding.com/sketch -->
    <title>Collab To Grow Logo</title>
    <desc>Created with Sketch.</desc>
    <defs>
        <path d="M29.9530516,6.21428571 L27.8873239,6.21428571 L33.0516432,0 L38.2159624,6.21428571 L36.1502347,6.21428571 L36.1502347,38.3214286 L29.9530516,38.3214286 L29.9530516,6.21428571 Z" id="path-1"></path>
        <filter x="-203.3%" y="-39.1%" width="506.6%" height="209.6%" filterUnits="objectBoundingBox" id="filter-2">
            <feOffset dx="0" dy="6" in="SourceAlpha" result="shadowOffsetOuter1"></feOffset>
            <feGaussianBlur stdDeviation="6" in="shadowOffsetOuter1" result="shadowBlurOuter1"></feGaussianBlur>
            <feColorMatrix values="0 0 0 0 0   0 0 0 0 0   0 0 0 0 0  0 0 0 0.06 0" type="matrix" in="shadowBlurOuter1"></feColorMatrix>
        </filter>
    </defs>
    <g id="Page-1" stroke="none" stroke-width="1" fill="none" fill-rule="evenodd">
        <g id="CollabtoGrow-Login-Page" transform="translate(-199.000000, -34.000000)">
            <g id="Collab-To-Grow-Logo" transform="translate(199.000000, 39.000000)">
                <path d="M46.3322066,56.9642857 L46.3322066,49.36525 L47.2752113,49.36525 L47.2752113,56.9642857 L46.3322066,56.9642857 Z M55.523662,56.9642857 L55.523662,50.64125 L52.9446009,56.9642857 L52.5583099,56.9642857 L49.9906103,50.64125 L49.9906103,56.9642857 L49.0476056,56.9642857 L49.0476056,49.36525 L50.3996244,49.36525 L52.7514554,55.1528214 L55.1146479,49.36525 L56.4666667,49.36525 L56.4666667,56.9642857 L55.523662,56.9642857 Z M63.6812207,56.9642857 L63.010892,55.2781429 L59.1707042,55.2781429 L58.5003756,56.9642857 L57.4551174,56.9642857 L60.5,49.36525 L61.6702347,49.36525 L64.7264789,56.9642857 L63.6812207,56.9642857 Z M61.0907981,50.2083214 L59.4433803,54.4350714 L62.7268545,54.4350714 L61.0907981,50.2083214 Z M64.9877934,53.1704643 C64.9877934,50.8121429 66.7261033,49.2399286 68.8847887,49.2399286 C70.225446,49.2399286 71.1570892,49.8323571 71.8274178,50.6640357 L71.0775587,51.1311429 C70.6003756,50.5159286 69.7937089,50.083 68.8847887,50.083 C67.2260094,50.083 65.9648826,51.359 65.9648826,53.1704643 C65.9648826,54.9705357 67.2260094,56.2693214 68.8847887,56.2693214 C69.7937089,56.2693214 70.5435681,55.825 70.9184977,55.4490357 L70.9184977,53.8996071 L68.3167136,53.8996071 L68.3167136,53.0565357 L71.8615023,53.0565357 L71.8615023,55.8022143 C71.1570892,56.5883214 70.1231925,57.1123929 68.8847887,57.1123929 C66.7261033,57.1123929 64.9877934,55.5287857 64.9877934,53.1704643 Z M73.3953052,56.9642857 L73.3953052,49.36525 L74.3383099,49.36525 L74.3383099,56.9642857 L73.3953052,56.9642857 Z M81.4733333,56.9642857 L77.0537089,50.8349286 L77.0537089,56.9642857 L76.1107042,56.9642857 L76.1107042,49.36525 L77.0764319,49.36525 L81.4392488,55.3692857 L81.4392488,49.36525 L82.3822535,49.36525 L82.3822535,56.9642857 L81.4733333,56.9642857 Z M84.1546479,56.9642857 L84.1546479,49.36525 L89.1196244,49.36525 L89.1196244,50.2083214 L85.0976526,50.2083214 L85.0976526,52.6577857 L89.0400939,52.6577857 L89.0400939,53.5008571 L85.0976526,53.5008571 L85.0976526,56.1212143 L89.1196244,56.1212143 L89.1196244,56.9642857 L84.1546479,56.9642857 Z M90.4148357,56.4516071 C90.4148357,56.1098214 90.6988732,55.825 91.0397183,55.825 C91.3805634,55.825 91.6646009,56.1098214 91.6646009,56.4516071 C91.6646009,56.7933929 91.3805634,57.0782143 91.0397183,57.0782143 C90.6988732,57.0782143 90.4148357,56.7933929 90.4148357,56.4516071 Z M101.605915,56.9642857 L100.935587,55.2781429 L97.0953991,55.2781429 L96.4250704,56.9642857 L95.3798122,56.9642857 L98.4246948,49.36525 L99.5949296,49.36525 L102.651174,56.9642857 L101.605915,56.9642857 Z M99.015493,50.2083214 L97.3680751,54.4350714 L100.651549,54.4350714 L99.015493,50.2083214 Z M103.639624,56.9642857 L103.639624,49.36525 L104.582629,49.36525 L104.582629,56.1212143 L108.104695,56.1212143 L108.104695,56.9642857 L103.639624,56.9642857 Z M109.433991,56.9642857 L109.433991,49.36525 L110.376995,49.36525 L110.376995,56.9642857 L109.433991,56.9642857 Z M111.842629,53.1704643 C111.842629,50.8121429 113.580939,49.2399286 115.739624,49.2399286 C117.080282,49.2399286 118.011925,49.8323571 118.682254,50.6640357 L117.932394,51.1311429 C117.455211,50.5159286 116.648545,50.083 115.739624,50.083 C114.080845,50.083 112.819718,51.359 112.819718,53.1704643 C112.819718,54.9705357 114.080845,56.2693214 115.739624,56.2693214 C116.648545,56.2693214 117.398404,55.825 117.773333,55.4490357 L117.773333,53.8996071 L115.171549,53.8996071 L115.171549,53.0565357 L118.716338,53.0565357 L118.716338,55.8022143 C118.011925,56.5883214 116.978028,57.1123929 115.739624,57.1123929 C113.580939,57.1123929 111.842629,55.5287857 111.842629,53.1704643 Z M125.61277,56.9642857 L121.193146,50.8349286 L121.193146,56.9642857 L120.250141,56.9642857 L120.250141,49.36525 L121.215869,49.36525 L125.578685,55.3692857 L125.578685,49.36525 L126.52169,49.36525 L126.52169,56.9642857 L125.61277,56.9642857 Z M128.089577,56.4516071 C128.089577,56.1098214 128.373615,55.825 128.71446,55.825 C129.055305,55.825 129.339343,56.1098214 129.339343,56.4516071 C129.339343,56.7933929 129.055305,57.0782143 128.71446,57.0782143 C128.373615,57.0782143 128.089577,56.7933929 128.089577,56.4516071 Z M133.384038,55.8933571 L133.940751,55.1756071 C134.440657,55.7338571 135.258685,56.2579286 136.326667,56.2579286 C137.678685,56.2579286 138.110423,55.5287857 138.110423,54.94775 C138.110423,54.0363214 137.190141,53.7856786 136.190329,53.51225 C134.974648,53.19325 133.622629,52.8514643 133.622629,51.359 C133.622629,50.1057857 134.736056,49.2513214 136.224413,49.2513214 C137.383286,49.2513214 138.280845,49.6386786 138.917089,50.3108571 L138.349014,51.0058214 C137.780939,50.3792143 136.985634,50.0943929 136.156244,50.0943929 C135.247324,50.0943929 134.599718,50.5842857 134.599718,51.3020357 C134.599718,52.0653571 135.474554,52.2932143 136.440282,52.55525 C137.678685,52.8856429 139.087512,53.273 139.087512,54.868 C139.087512,55.9731071 138.337653,57.101 136.292582,57.101 C134.974648,57.101 134.00892,56.5997143 133.384038,55.8933571 Z M140.496338,54.0135357 L140.496338,49.36525 L141.439343,49.36525 L141.439343,53.99075 C141.439343,55.3806786 142.189202,56.2579286 143.586667,56.2579286 C144.984131,56.2579286 145.733991,55.3806786 145.733991,53.99075 L145.733991,49.36525 L146.676995,49.36525 L146.676995,54.0021429 C146.676995,55.8933571 145.643099,57.101 143.586667,57.101 C141.530235,57.101 140.496338,55.8819643 140.496338,54.0135357 Z M152.00554,57.101 C149.858216,57.101 148.142629,55.506 148.142629,53.1704643 C148.142629,50.8349286 149.858216,49.2399286 152.00554,49.2399286 C153.380282,49.2399286 154.311925,49.8893214 154.914085,50.7437857 L154.118779,51.1881071 C153.687042,50.5501071 152.903099,50.083 152.00554,50.083 C150.380845,50.083 149.119718,51.359 149.119718,53.1704643 C149.119718,54.9705357 150.380845,56.2579286 152.00554,56.2579286 C152.903099,56.2579286 153.687042,55.8022143 154.118779,55.1528214 L154.925446,55.5971429 C154.289202,56.463 153.380282,57.101 152.00554,57.101 Z M159.685915,57.101 C157.538592,57.101 155.823005,55.506 155.823005,53.1704643 C155.823005,50.8349286 157.538592,49.2399286 159.685915,49.2399286 C161.060657,49.2399286 161.9923,49.8893214 162.59446,50.7437857 L161.799155,51.1881071 C161.367418,50.5501071 160.583474,50.083 159.685915,50.083 C158.061221,50.083 156.800094,51.359 156.800094,53.1704643 C156.800094,54.9705357 158.061221,56.2579286 159.685915,56.2579286 C160.583474,56.2579286 161.367418,55.8022143 161.799155,55.1528214 L162.605822,55.5971429 C161.969577,56.463 161.060657,57.101 159.685915,57.101 Z M163.810141,56.9642857 L163.810141,49.36525 L168.775117,49.36525 L168.775117,50.2083214 L164.753146,50.2083214 L164.753146,52.6577857 L168.695587,52.6577857 L168.695587,53.5008571 L164.753146,53.5008571 L164.753146,56.1212143 L168.775117,56.1212143 L168.775117,56.9642857 L163.810141,56.9642857 Z M170.274836,56.9642857 L170.274836,49.36525 L175.239812,49.36525 L175.239812,50.2083214 L171.21784,50.2083214 L171.21784,52.6577857 L175.160282,52.6577857 L175.160282,53.5008571 L171.21784,53.5008571 L171.21784,56.1212143 L175.239812,56.1212143 L175.239812,56.9642857 L170.274836,56.9642857 Z M176.739531,56.9642857 L176.739531,49.36525 L179.329953,49.36525 C181.681784,49.36525 183.215587,51.0172143 183.215587,53.1704643 C183.215587,55.3351071 181.681784,56.9642857 179.329953,56.9642857 L176.739531,56.9642857 Z M177.682535,56.1212143 L179.329953,56.1212143 C181.170516,56.1212143 182.238498,54.7996429 182.238498,53.1704643 C182.238498,51.5298929 181.204601,50.2083214 179.329953,50.2083214 L177.682535,50.2083214 L177.682535,56.1212143 Z M184.181315,56.4516071 C184.181315,56.1098214 184.465352,55.825 184.806197,55.825 C185.147042,55.825 185.43108,56.1098214 185.43108,56.4516071 C185.43108,56.7933929 185.147042,57.0782143 184.806197,57.0782143 C184.465352,57.0782143 184.181315,56.7933929 184.181315,56.4516071 Z" id="IMAGINE.-ALIGN.-SUCC" fill="#FFFFFF"></path>
                <path d="M42.3061033,30.8021429 C42.3061033,26.2035714 45.6215962,22.9410714 50.2384977,22.9410714 C53.3061033,22.9410714 55.1652582,24.2771429 56.1568075,25.6753571 L53.5849765,28.0678571 C52.8723005,27.0425 51.7877934,26.4521429 50.4244131,26.4521429 C48.0384977,26.4521429 46.3652582,28.1921429 46.3652582,30.8021429 C46.3652582,33.4121429 48.0384977,35.1832143 50.4244131,35.1832143 C51.7877934,35.1832143 52.8723005,34.5617857 53.5849765,33.5675 L56.1568075,35.96 C55.1652582,37.3582143 53.3061033,38.6942857 50.2384977,38.6942857 C45.6215962,38.6942857 42.3061033,35.4317857 42.3061033,30.8021429 Z M65.6694836,38.6942857 C60.742723,38.6942857 57.7680751,35.09 57.7680751,30.8021429 C57.7680751,26.5453571 60.742723,22.9410714 65.6694836,22.9410714 C70.62723,22.9410714 73.6018779,26.5453571 73.6018779,30.8021429 C73.6018779,35.09 70.62723,38.6942857 65.6694836,38.6942857 Z M65.6694836,35.1832143 C68.1173709,35.1832143 69.5117371,33.1635714 69.5117371,30.8021429 C69.5117371,28.4717857 68.1173709,26.4521429 65.6694836,26.4521429 C63.2215962,26.4521429 61.858216,28.4717857 61.858216,30.8021429 C61.858216,33.1635714 63.2215962,35.1832143 65.6694836,35.1832143 Z M76.514554,38.3214286 L76.514554,17.5967857 L80.4497653,17.5967857 L80.4497653,38.3214286 L76.514554,38.3214286 Z M84.3539906,38.3214286 L84.3539906,17.5967857 L88.2892019,17.5967857 L88.2892019,38.3214286 L84.3539906,38.3214286 Z M101.179343,38.3214286 L101.179343,36.7678571 C100.156808,37.9796429 98.3906103,38.6942857 96.4384977,38.6942857 C94.0525822,38.6942857 91.2328638,37.0785714 91.2328638,33.7228571 C91.2328638,30.2117857 94.0525822,28.9378571 96.4384977,28.9378571 C98.4215962,28.9378571 100.187793,29.5592857 101.179343,30.7710714 L101.179343,28.6892857 C101.179343,27.1667857 99.8779343,26.1725 97.8948357,26.1725 C96.2835681,26.1725 94.7962441,26.7628571 93.5258216,27.9435714 L92.0384977,25.3025 C93.8666667,23.6867857 96.2215962,22.9410714 98.5765258,22.9410714 C101.984977,22.9410714 105.114554,24.3082143 105.114554,28.6271429 L105.114554,38.3214286 L101.179343,38.3214286 Z M101.179343,34.7171429 L101.179343,32.8528571 C100.528638,31.9828571 99.2892019,31.5478571 98.0187793,31.5478571 C96.4694836,31.5478571 95.199061,32.3867857 95.199061,33.8160714 C95.199061,35.2142857 96.4694836,36.0221429 98.0187793,36.0221429 C99.2892019,36.0221429 100.528638,35.5871429 101.179343,34.7171429 Z M109.018779,38.3214286 L109.018779,17.5967857 L112.953991,17.5967857 L112.953991,25.2403571 C114.131455,23.7178571 115.804695,22.9410714 117.570892,22.9410714 C121.38216,22.9410714 124.201878,25.9239286 124.201878,30.8332143 C124.201878,35.8357143 121.351174,38.6942857 117.570892,38.6942857 C115.773709,38.6942857 114.131455,37.8864286 112.953991,36.4260714 L112.953991,38.3214286 L109.018779,38.3214286 Z M112.953991,33.5053571 C113.604695,34.4685714 115.061033,35.1832143 116.331455,35.1832143 C118.624413,35.1832143 120.142723,33.4432143 120.142723,30.8332143 C120.142723,28.2232143 118.624413,26.4521429 116.331455,26.4521429 C115.061033,26.4521429 113.604695,27.1978571 112.953991,28.1921429 L112.953991,33.5053571 Z" id="collab" fill="#FFFFFF"></path>
                <path d="M132.49061,35.4504286 C130.744038,35.4504286 129.802066,34.5452143 129.802066,32.8528571 L129.802066,27.8938571 L128.232113,27.8938571 L128.232113,25.7095357 L129.802066,25.7095357 L129.802066,23.1119643 L132.313991,23.1119643 L132.313991,25.7095357 L134.237183,25.7095357 L134.237183,27.8938571 L132.313991,27.8938571 L132.313991,32.1837857 C132.313991,32.7741429 132.627981,33.22675 133.177465,33.22675 C133.550329,33.22675 133.903568,33.089 134.040939,32.95125 L134.570798,34.8403929 C134.197934,35.1749286 133.530704,35.4504286 132.49061,35.4504286 Z M140.340376,35.4504286 C137.220094,35.4504286 135.33615,33.1677143 135.33615,30.4520714 C135.33615,27.7561071 137.220094,25.4733929 140.340376,25.4733929 C143.480282,25.4733929 145.364225,27.7561071 145.364225,30.4520714 C145.364225,33.1677143 143.480282,35.4504286 140.340376,35.4504286 Z M140.340376,33.22675 C141.890704,33.22675 142.773803,31.9476429 142.773803,30.4520714 C142.773803,28.9761786 141.890704,27.6970714 140.340376,27.6970714 C138.790047,27.6970714 137.926573,28.9761786 137.926573,30.4520714 C137.926573,31.9476429 138.790047,33.22675 140.340376,33.22675 Z" id="to" fill="#FFFFFF"></path>
                <path d="M150.374648,42.1742857 L152.140845,39.3157143 C153.349296,40.6517857 154.929577,41.18 156.819718,41.18 C158.709859,41.18 160.940845,40.3410714 160.940845,37.3892857 L160.940845,35.8667857 C159.76338,37.3582143 158.152113,38.2282143 156.323944,38.2282143 C152.574648,38.2282143 149.723944,35.5871429 149.723944,30.5846429 C149.723944,25.6753571 152.543662,22.9410714 156.323944,22.9410714 C158.121127,22.9410714 159.732394,23.7178571 160.940845,25.2403571 L160.940845,23.3139286 L164.907042,23.3139286 L164.907042,37.2960714 C164.907042,43.0132143 160.507042,44.4114286 156.819718,44.4114286 C154.247887,44.4114286 152.233803,43.8210714 150.374648,42.1742857 Z M160.940845,33.0082143 L160.940845,28.1610714 C160.290141,27.1667857 158.864789,26.4521429 157.56338,26.4521429 C155.332394,26.4521429 153.783099,28.0057143 153.783099,30.5846429 C153.783099,33.1635714 155.332394,34.7171429 157.56338,34.7171429 C158.864789,34.7171429 160.290141,33.9714286 160.940845,33.0082143 Z M168.811268,38.3214286 L168.811268,23.3139286 L172.746479,23.3139286 L172.746479,25.3646429 C173.8,24.0285714 175.659155,22.9721429 177.51831,22.9721429 L177.51831,26.825 C177.239437,26.7628571 176.867606,26.7317857 176.433803,26.7317857 C175.132394,26.7317857 173.397183,27.4464286 172.746479,28.4096429 L172.746479,38.3214286 L168.811268,38.3214286 Z M186.907042,38.6942857 C181.980282,38.6942857 179.005634,35.09 179.005634,30.8021429 C179.005634,26.5453571 181.980282,22.9410714 186.907042,22.9410714 C191.864789,22.9410714 194.839437,26.5453571 194.839437,30.8021429 C194.839437,35.09 191.864789,38.6942857 186.907042,38.6942857 Z M186.907042,35.1832143 C189.35493,35.1832143 190.749296,33.1635714 190.749296,30.8021429 C190.749296,28.4717857 189.35493,26.4521429 186.907042,26.4521429 C184.459155,26.4521429 183.095775,28.4717857 183.095775,30.8021429 C183.095775,33.1635714 184.459155,35.1832143 186.907042,35.1832143 Z M210.890141,38.3214286 L207.729577,28.0989286 L204.569014,38.3214286 L200.35493,38.3214286 L195.8,23.3139286 L199.890141,23.3139286 L202.678873,33.4121429 L205.96338,23.3139286 L209.464789,23.3139286 L212.749296,33.4121429 L215.538028,23.3139286 L219.628169,23.3139286 L215.073239,38.3214286 L210.890141,38.3214286 Z" id="grow" fill="#FFFFFF"></path>
                <rect id="Rectangle" fill="#3EB7F9" x="0" y="24.8571429" width="6.1971831" height="13.4642857"></rect>
                <rect id="Rectangle-Copy" fill="#3EB7F9" x="9.29577465" y="19.6785714" width="6.1971831" height="18.6428571"></rect>
                <rect id="Rectangle-Copy-2" fill="#3EB7F9" x="19.6244131" y="14.5" width="6.1971831" height="23.8214286"></rect>
                <g id="Combined-Shape">
                    <use fill="black" fill-opacity="1" filter="url(#filter-2)" xlink:href="#path-1"></use>
                    <use fill="#70D44B" fill-rule="evenodd" xlink:href="#path-1"></use>
                </g>
                <ellipse id="Oval" fill="#3EB7F9" cx="22.7230047" cy="9.32142857" rx="3.09859155" ry="3.10714286"></ellipse>
                <ellipse id="Oval-Copy" fill="#3EB7F9" cx="12.3943662" cy="14.5" rx="3.09859155" ry="3.10714286"></ellipse>
                <ellipse id="Oval-Copy-2" fill="#3EB7F9" cx="3.09859155" cy="19.6785714" rx="3.09859155" ry="3.10714286"></ellipse>
            </g>
        </g>
    </g>
</svg>