<svg xmlns="http://www.w3.org/2000/svg" viewBox="0 0 83.94 83.94"><defs><style>.cls-1{fill:none;stroke:#fff;stroke-miterlimit:10;stroke-width:2px;}.cls-2{fill:#fff;}</style></defs><title>iconsArtboard 4</title><g id="Layer_1" data-name="Layer 1"><circle class="cls-1" cx="41.97" cy="41.97" r="40.97"/><polygon class="cls-2" points="39.01 34.12 39.02 34.12 39.01 34.12 39.01 34.12"/><polygon class="cls-2" points="38.99 34.37 39 34.37 38.99 34.37 38.99 34.37"/><path class="cls-2" d="M39,34v0h0v0a.06.06,0,0,0,0-.06h0A.06.06,0,0,1,39,34Z"/><path class="cls-2" d="M54.09,55.38v0Z"/><path class="cls-2" d="M55.1,49.7v0Z"/><path class="cls-2" d="M73.67,55.45q-2.53-3.6-5.09-7.18l-6-8.45c-1.83-2.57-3.65-5.16-5.48-7.74L49.78,21.84q-2.12-3-4.21-5.95c-.2-.29-.35-.34-.71-.18a2.65,2.65,0,0,1-2.46-.14c-.31-.18-.45-.69-.85-.57a3.72,3.72,0,0,0-.91.61,1.66,1.66,0,0,1-.34.25c-.28.13-.26.28-.12.53a2.57,2.57,0,0,1-.48,3,2.36,2.36,0,0,1-3.11.34,1.13,1.13,0,0,0-1.83.07,1.8,1.8,0,0,1-.39.27c-.2.12-.22.23-.1.46a2.43,2.43,0,0,1-.53,3.1,2.55,2.55,0,0,1-3.11.29c-.31-.17-.42-.71-.85-.56a4.86,4.86,0,0,0-1,.65,2.27,2.27,0,0,1-.25.18c-.27.15-.29.31-.15.6A2.52,2.52,0,0,1,27.61,28a2.54,2.54,0,0,1-3.33-.39c-.19-.2-.32-.2-.53,0a10.41,10.41,0,0,1-1,.72.41.41,0,0,0-.17.63,2.4,2.4,0,0,1-.52,3c-.25.24-.2.39,0,.61l1,1.45c1.42,2,2.84,4,4.27,6l5.54,7.77,6,8.46,6,8.49,5.31,7.48c.12.17.21.24.42.15,1.55-.6,2.28-.44,3.38.77.14.16.21.23.41.07a9.26,9.26,0,0,1,1.11-.78c.28-.17.31-.29.13-.57a2.55,2.55,0,0,1,.4-3.38,2.63,2.63,0,0,1,3.29-.1c.31.21.43.78.83.68a3.52,3.52,0,0,0,1-.68l.26-.19c.2-.13.26-.23.07-.48a2.56,2.56,0,0,1,3.78-3.41c.24.2.37.66.67.62s.59-.36.87-.56.55-.32.66-.56-.22-.42-.35-.65a1.7,1.7,0,0,1-.09-.24,2.59,2.59,0,0,1,1.19-3.11,2.52,2.52,0,0,1,3.28.73c.24.32.38.24.62.06a6.83,6.83,0,0,1,.89-.63c.4-.22.37-.43.15-.77a2.42,2.42,0,0,1,.68-3.36v-.11A3.08,3.08,0,0,1,73.67,55.45ZM54.4,55.7l-5.92,2.06-.75.27a.27.27,0,0,1-.23,0,27.78,27.78,0,0,1-4.23-3.17c-.44-.39-.85-.81-1.26-1.23-.64-.63-1.21-1.32-1.79-2-.1-.12-.09-.17,0-.26a13.66,13.66,0,0,0,1.52-1.1,2.64,2.64,0,0,0-1-4.37,2.59,2.59,0,0,0-2.45.37l-1.1.77c-.11.09-.16,0-.22-.06-.2-.38-.4-.78-.63-1.15-.35-.59-.61-1.23-.9-1.85a30.29,30.29,0,0,1-1.63-4.25,10.8,10.8,0,0,1-.4-1.68.36.36,0,0,1,.08-.33l1.55-1.9c1.15-1.41,2.3-2.81,3.44-4.22l.08-.06a12.63,12.63,0,0,0,.47,2.13.37.37,0,0,1,0,.11s.07.07,0,.12c.33,1,.67,2,1.06,2.95S41.12,39,41.64,40s1,1.87,1.5,2.77a41,41,0,0,0,2.63,3.9,37.34,37.34,0,0,0,4.17,4.62c.6.56,1.23,1.1,1.88,1.61s1,.79,1.57,1.19a.12.12,0,0,1,.1.08l1.82,1.17ZM49.62,44.58,49.23,44V43.9a2.21,2.21,0,0,1-.33-.47,39.34,39.34,0,0,0-3.59-4.64,25.84,25.84,0,0,0-3.45-3.25,1.44,1.44,0,0,1-.5-.69,17.49,17.49,0,0,1-.55-1.78.51.51,0,0,1,.29.1,17.12,17.12,0,0,1,3.57,2.53,32.37,32.37,0,0,1,3.85,4.17A37,37,0,0,1,51.36,44a30.19,30.19,0,0,1,1.94,3.8,18.11,18.11,0,0,1,1.28,4.25,3,3,0,0,1,.08.74,17.58,17.58,0,0,1-1.8-1.39.24.24,0,0,1-.09-.15A30.22,30.22,0,0,0,49.62,44.58Zm1.69,5.35a52.06,52.06,0,0,1-8.94-12.77,31.49,31.49,0,0,1,4.73,5.26A33.18,33.18,0,0,1,51.31,49.93Zm9.35.78-1.15.49a.61.61,0,0,1-.51,0,.42.42,0,0,1-.3-.36c0-.24-.08-.48-.13-.76l-.89.62c-.06,0,0,.1,0,.15a5.47,5.47,0,0,1,.14,1.56,1.58,1.58,0,0,1-.09.49,1,1,0,0,1-1.18.72,3.41,3.41,0,0,1-.83-.23.17.17,0,0,1-.11-.18,15.11,15.11,0,0,0-1.05-4.65,33.87,33.87,0,0,0-3.38-6.52A38.31,38.31,0,0,0,48,37.83a27,27,0,0,0-4.08-3.92,14.5,14.5,0,0,0-2.65-1.65,5,5,0,0,0-.53-.23c-.07,0-.13-.06-.13-.15a2.85,2.85,0,0,1,.09-1.05,1,1,0,0,1,1.23-.73,3.91,3.91,0,0,1,1.35.52.27.27,0,0,0,.34,0l.73-.52c.11-.07.16-.11,0-.19s-.32-.19-.48-.28a.53.53,0,0,1-.17-.81c.31-.35.64-.7,1-1a.59.59,0,0,1,.87,0,5.64,5.64,0,0,0,.88.59c.45.3.91.6,1.38.89a.52.52,0,0,1,.3.51.62.62,0,0,1-.4.54c-.39.16-.78.33-1.18.48a.85.85,0,0,1-.9-.16l-.14-.1a.22.22,0,0,0-.32,0c-.25.19-.51.37-.78.55s-.13.14,0,.23a22.74,22.74,0,0,1,2.44,2.15c.17.18.34.36.52.53l.2.21.13.15.19.2c.07.08.13.06.21,0a7.83,7.83,0,0,1,.67-.45.75.75,0,0,1,.2-.15l2.14-1.5c.07,0,.15-.13.16.05a.07.07,0,0,0,.05.06.75.75,0,0,1,.36.64,1,1,0,0,0,.42.66c.11.07.11.12,0,.2s-.42.27-.61.41a.19.19,0,0,1-.29,0,1.46,1.46,0,0,1-.41-.83,1.28,1.28,0,0,0-.05-.27.31.31,0,0,0-.49-.14c-.41.27-.8.58-1.22.83a.48.48,0,0,1-.2.15l-.77.57.15.17c.37.36.69.76,1,1.15.9,1.06,1.74,2.17,2.55,3.31.07.09.11.1.2,0l.92-.64c.1-.06.1-.11,0-.2s-.19-.27-.28-.41a.73.73,0,0,1,0-1l.72-.85a.61.61,0,0,1,1,0c.08.09.15.19.22.28L56,38.7a1,1,0,0,1,.2.49.55.55,0,0,1-.41.64l-1.09.4a.73.73,0,0,1-.86-.26,4.5,4.5,0,0,1-.31-.45c-.06-.09-.11-.09-.19,0-.3.22-.6.44-.92.64-.12.09-.08.15,0,.24.45.68.91,1.36,1.35,2.06s.7,1.14,1,1.73a.64.64,0,0,1,.1.18c.22.32.22.32.56.09l2.64-1.85c.06,0,.18-.21.2.05l0,0a.88.88,0,0,1,.4.74.89.89,0,0,0,.38.56c.15.1.1.16,0,.23s-.39.25-.58.4a.18.18,0,0,1-.29,0,1.46,1.46,0,0,1-.42-.9.42.42,0,0,0-.21-.38.21.21,0,0,0-.27,0l-2.07,1.45c-.08.06-.08.1,0,.19.18.35.36.71.55,1.06a4,4,0,0,1,.31.66c.36.69.65,1.41.94,2.13.13.33.25.66.35,1,0,.08.07.08.13,0l.83-.59c.14-.09.07-.23,0-.32a1.1,1.1,0,0,1,0-.87c0-.11.12-.14.18-.2.26-.3.54-.59.81-.88a.54.54,0,0,1,.56-.18.47.47,0,0,1,.41.38c.18.81.37,1.63.55,2.45a1.82,1.82,0,0,0,.11.3A.62.62,0,0,1,60.66,50.71Z"/><path class="cls-2" d="M53.22,54.14h0Z"/><polygon class="cls-2" points="54.09 55.38 54.09 55.38 54.09 55.38 54.09 55.38"/><path class="cls-2" d="M31.91,48.46l-5.48-7.74c-2-2.82-4-5.63-6-8.44-.18-.26-.19-.42.09-.58,1.35-.76,1.59-1.78.5-3.05-.23-.27-.12-.4.13-.57.75-.51,1.48-1,2.23-1.57.31-.22.63-.57.95-.58s.43.5.64.78a1.43,1.43,0,1,0,2.37-1.6,2.76,2.76,0,0,0-.38-.56c-.25-.27-.27-.42.07-.64.76-.49,1.47-1,2.19-1.57,0-.06-.05-.09-.07-.09L21.31,18.8c-.25-.11-.35,0-.48.2a2.59,2.59,0,0,1-2.28,1.24c-.33,0-.68-.34-.93-.08a3,3,0,0,0-.44.93,2.86,2.86,0,0,1-.21.43c-.16.26-.11.41.16.58a2.55,2.55,0,0,1,1.17,2.71,2.28,2.28,0,0,1-2.39,1.94c-1.3-.23-1.49.53-1.81,1.35a.25.25,0,0,1,0,.09c-.15.22-.11.33.14.48a2.56,2.56,0,0,1,1.2,2.79A2.33,2.33,0,0,1,13,33.37c-1.24-.22-1.47.46-1.76,1.28a.35.35,0,0,1-.06.14c-.17.24-.07.37.16.5a2,2,0,0,1,.7.61,2.51,2.51,0,0,1,.07,3,2.58,2.58,0,0,1-2.72,1c-.35-.09-.48,0-.61.3a4.53,4.53,0,0,1-.63,1.31v.21A2.42,2.42,0,0,1,9.6,44.72c-.09.34,0,.45.28.57,1.08.45,2.15.93,3.22,1.4l8.44,3.71,14.22,6.2,2.63,1.14c-.69-1.15-1.44-2.21-2.19-3.27Z"/><path class="cls-2" d="M66.14,42.88a8.62,8.62,0,0,0,.63.83c.17.18.36.27.5-.08a14.26,14.26,0,0,1,.58-1.34c.12-.25,0-.32-.18-.43a2.47,2.47,0,0,1-1.43-3.06c.05-.22.05-.34-.2-.44-.86-.35-1.68-.78-2.55-1.11a5.43,5.43,0,0,0-1.75-.65.46.46,0,0,0,.15.31Z"/><path class="cls-2" d="M61.73,36.59h0v0Z"/><path class="cls-2" d="M61.74,36.58h0Z"/><path class="cls-2" d="M61.73,36.52l-.06,0,.06,0Z"/></g></svg>