<svg xmlns="http://www.w3.org/2000/svg" viewBox="0 0 83.94 83.94"><defs><style>.cls-1{fill:none;stroke:#fff;stroke-miterlimit:10;stroke-width:2px;}.cls-2{fill:#fff;}</style></defs><title>iconsArtboard 2</title><g id="Layer_1" data-name="Layer 1"><circle class="cls-1" cx="41.97" cy="41.97" r="40.97"/><g id="FZ1ECf.tif"><path class="cls-2" d="M40.65,15.24h2.69l.33,0c.78.08,1.57.13,2.34.25a26,26,0,0,1,6.79,2,26.65,26.65,0,0,1,12.72,11.8,25.82,25.82,0,0,1,3,9.84c.06.62.11,1.25.16,1.87v2.08c0,.39-.08.78-.11,1.17a25.29,25.29,0,0,1-2,8.2A26.56,26.56,0,0,1,53,66.34a25.59,25.59,0,0,1-8.19,2.21L43,68.71H40.88l-.33,0a25,25,0,0,1-7.16-1.37,26.43,26.43,0,0,1-15.15-13,25.48,25.48,0,0,1-2.85-9.44l-.15-1.7V40.66c0-.1,0-.2,0-.3a24.73,24.73,0,0,1,.95-5.66A26.48,26.48,0,0,1,30.4,17.88a25.13,25.13,0,0,1,8.75-2.49ZM36,42.54l.18,0,4.27-.82,6.19-1.18c.15,0,.28,0,.35-.23,1.47-4,3-8.08,4.44-12.13a.36.36,0,0,0-.07-.3q-3-3.06-6.08-6.11a.56.56,0,0,0-.29-.14,20.74,20.74,0,0,0-4.79,0A22.84,22.84,0,0,0,30.76,25a1.48,1.48,0,0,0-.48.45c-.46.7-.92,1.39-1.33,2.11a16.76,16.76,0,0,0-2,5.39.44.44,0,0,0,.13.42c1.29,1.32,2.56,2.65,3.85,4,1.62,1.69,3.25,3.37,4.87,5ZM56.3,28.84h0l-3-.19c-.18,0-.27,0-.34.2-1.47,4-3,8.06-4.43,12.1a.5.5,0,0,0,0,.36l4.83,8.51a.31.31,0,0,0,.36.17l5.81-.53c1-.09,2.07-.18,3.1-.29A.5.5,0,0,0,63,49c.39-.72.79-1.42,1.11-2.17a29.51,29.51,0,0,0,2-8.12,1,1,0,0,0,0-.38,21,21,0,0,0-6.4-9.15.54.54,0,0,0-.32-.13ZM18.85,44.66a26.75,26.75,0,0,0,.43,4.55A5.91,5.91,0,0,0,20.48,52a25.16,25.16,0,0,0,4.38,4.49.39.39,0,0,0,.4.07l8.27-2.75a.3.3,0,0,0,.24-.32c.09-1.06.19-2.12.29-3.18q.3-3.19.61-6.37a.52.52,0,0,0-.17-.47l-8-8.24c-.24-.25-.47-.63-.76-.7s-.67.17-1,.29a15.71,15.71,0,0,0-4.45,2.4.82.82,0,0,0-.24.36A21.08,21.08,0,0,0,18.85,44.66ZM25.79,59c.05.72.12,1.65.17,2.59a.63.63,0,0,0,.27.48,25.08,25.08,0,0,0,9.31,4.6,7.7,7.7,0,0,0,2.05.37,30.17,30.17,0,0,0,5.52-.59,9.61,9.61,0,0,0,2.76-.9.26.26,0,0,0,.16-.35q-.64-2.66-1.28-5.31a.44.44,0,0,0-.3-.36q-4.81-2.07-9.61-4.17a.76.76,0,0,0-.59,0l-7.9,2.63C25.77,58.12,25.77,58.12,25.79,59Zm37.11-8.1-.58,0-3.38.31-5.22.47a.74.74,0,0,0-.48.24l-6.76,7a.41.41,0,0,0-.12.44c.26,1.06.51,2.13.77,3.19l.57,2.35c.15,0,.28,0,.41,0,1.87-.33,3.74-.62,5.59-1a10.16,10.16,0,0,0,3.87-1.73A23.61,23.61,0,0,0,63.23,56a.58.58,0,0,0,.09-.34c-.07-1-.16-2-.24-2.93C63,52.14,63,51.51,62.9,50.85ZM26.79,21.59c1.31.45,2.6.9,3.89,1.33a.4.4,0,0,0,.28,0,24.46,24.46,0,0,1,4-1.78,23.5,23.5,0,0,1,9.91-1.24.49.49,0,0,0,.32-.12c.72-.54,1.42-1.1,2.15-1.62.4-.28.84-.5,1.26-.74C42,15.39,32.89,16.61,26.79,21.59Zm30.59.11.17.21a12.67,12.67,0,0,1,2.76,5.3,1.23,1.23,0,0,0,.47.66,23.42,23.42,0,0,1,5.46,6.63l.13.23A25,25,0,0,0,57.38,21.7ZM18.73,31.5l-.1.18a25.38,25.38,0,0,0-1.93,6.83,24.94,24.94,0,0,0,0,6.85,5.62,5.62,0,0,0,.46,1.19l.07,0v-.09a22.82,22.82,0,0,1,1.21-9.35,4.49,4.49,0,0,0,.29-1.85C18.68,34,18.73,32.8,18.73,31.5Z"/></g></g></svg>