<svg xmlns="http://www.w3.org/2000/svg" viewBox="0 0 83.94 83.94"><defs><style>.cls-1{fill:#fff;}.cls-2{fill:none;stroke:#fff;stroke-miterlimit:10;stroke-width:2px;}</style></defs><title>iconsArtboard 3</title><g id="Layer_1" data-name="Layer 1"><g id="YEPjUE.tif"><path class="cls-1" d="M58.61,50.62v4.52c-1.47,4.75-4.81,7.52-9.48,8.87l-2,.58v7H37.22V68.48c0-3.75,0-3.75-3.35-5.1-5.39-2.19-8.62-6.47-8.55-11.46h7c.53,3.25,2.28,5.65,5.51,6.15a29.74,29.74,0,0,0,8.48.05A5.14,5.14,0,0,0,51,53.38a5.53,5.53,0,0,0-3.21-5.91c-2.18-1.08-4.58-1.71-6.85-2.63-3.52-1.43-7.34-2.45-10.43-4.53-6.59-4.43-6.36-13.47.18-18,1.6-1.11,3.58-1.65,5.31-2.59a2.47,2.47,0,0,0,1.23-1.63c.16-1.9.07-3.83.07-5.74h9.86v7.08c7.18,2.72,10.67,7,10.28,12.57H50.48c-.36-2.71-1.22-5.06-4-6.07a12.22,12.22,0,0,0-10.14.54c-4,2.07-4.13,6.87-.26,9.18a21.54,21.54,0,0,0,4.12,1.78c2.33.78,4.73,1.35,7,2.14C52.79,41.48,57.22,44.49,58.61,50.62Z"/></g><circle class="cls-2" cx="41.97" cy="41.97" r="40.97"/></g></svg>